<svg width="120" height="120" viewBox="0 0 120 120" fill="none" xmlns="http://www.w3.org/2000/svg">
  <!-- Pixel art style logo with "BP" monogram -->
  <defs>
    <linearGradient id="goldGradient" x1="0%" y1="0%" x2="100%" y2="100%">
      <stop offset="0%" style="stop-color:#ffd700;stop-opacity:1" />
      <stop offset="50%" style="stop-color:#c9a96e;stop-opacity:1" />
      <stop offset="100%" style="stop-color:#d4a574;stop-opacity:1" />
    </linearGradient>
  </defs>

  <!-- Outer pixel frame -->
  <rect x="4" y="4" width="8" height="8" fill="url(#goldGradient)"/>
  <rect x="108" y="4" width="8" height="8" fill="url(#goldGradient)"/>
  <rect x="4" y="108" width="8" height="8" fill="url(#goldGradient)"/>
  <rect x="108" y="108" width="8" height="8" fill="url(#goldGradient)"/>

  <!-- B letter in pixel art -->
  <rect x="24" y="32" width="8" height="56" fill="url(#goldGradient)"/>
  <rect x="32" y="32" width="16" height="8" fill="url(#goldGradient)"/>
  <rect x="32" y="56" width="16" height="8" fill="url(#goldGradient)"/>
  <rect x="32" y="80" width="16" height="8" fill="url(#goldGradient)"/>
  <rect x="48" y="40" width="8" height="16" fill="url(#goldGradient)"/>
  <rect x="48" y="64" width="8" height="16" fill="url(#goldGradient)"/>

  <!-- P letter in pixel art -->
  <rect x="68" y="32" width="8" height="56" fill="url(#goldGradient)"/>
  <rect x="76" y="32" width="16" height="8" fill="url(#goldGradient)"/>
  <rect x="76" y="56" width="16" height="8" fill="url(#goldGradient)"/>
  <rect x="92" y="40" width="8" height="16" fill="url(#goldGradient)"/>

  <!-- Decorative pixels -->
  <rect x="56" y="20" width="4" height="4" fill="#c9a96e" opacity="0.6"/>
  <rect x="64" y="20" width="4" height="4" fill="#c9a96e" opacity="0.6"/>
  <rect x="56" y="96" width="4" height="4" fill="#c9a96e" opacity="0.6"/>
  <rect x="64" y="96" width="4" height="4" fill="#c9a96e" opacity="0.6"/>
</svg>
